# Blender 3.3.9
# www.blender.org
mtllib cylinder.mtl
o Cylinder
v 0.000000 -1.000000 0.000000
v 0.000000 1.000000 0.000000
v 0.000000 -1.000000 -1.000000
v 0.000000 1.000000 -1.000000
v 0.130526 -1.000000 -0.991445
v 0.130526 1.000000 -0.991445
v 0.258819 -1.000000 -0.965926
v 0.258819 1.000000 -0.965926
v 0.382683 -1.000000 -0.923880
v 0.382683 1.000000 -0.923880
v 0.500000 -1.000000 -0.866025
v 0.500000 1.000000 -0.866025
v 0.608761 -1.000000 -0.793353
v 0.608761 1.000000 -0.793353
v 0.707107 -1.000000 -0.707107
v 0.707107 1.000000 -0.707107
v 0.793353 -1.000000 -0.608761
v 0.793353 1.000000 -0.608761
v 0.866025 -1.000000 -0.500000
v 0.866025 1.000000 -0.500000
v 0.923880 -1.000000 -0.382683
v 0.923880 1.000000 -0.382683
v 0.965926 -1.000000 -0.258819
v 0.965926 1.000000 -0.258819
v 0.991445 -1.000000 -0.130526
v 0.991445 1.000000 -0.130526
v 1.000000 -1.000000 0.000000
v 1.000000 1.000000 0.000000
v 0.991445 -1.000000 0.130526
v 0.991445 1.000000 0.130526
v 0.965926 -1.000000 0.258819
v 0.965926 1.000000 0.258819
v 0.923880 -1.000000 0.382683
v 0.923880 1.000000 0.382683
v 0.866025 -1.000000 0.500000
v 0.866025 1.000000 0.500000
v 0.793353 -1.000000 0.608761
v 0.793353 1.000000 0.608761
v 0.707107 -1.000000 0.707107
v 0.707107 1.000000 0.707107
v 0.608761 -1.000000 0.793353
v 0.608761 1.000000 0.793353
v 0.500000 -1.000000 0.866025
v 0.500000 1.000000 0.866025
v 0.382683 -1.000000 0.923880
v 0.382683 1.000000 0.923880
v 0.258819 -1.000000 0.965926
v 0.258819 1.000000 0.965926
v 0.130526 -1.000000 0.991445
v 0.130526 1.000000 0.991445
v 0.000000 -1.000000 1.000000
v 0.000000 1.000000 1.000000
v -0.130526 -1.000000 0.991445
v -0.130526 1.000000 0.991445
v -0.258819 -1.000000 0.965926
v -0.258819 1.000000 0.965926
v -0.382683 -1.000000 0.923880
v -0.382683 1.000000 0.923880
v -0.500000 -1.000000 0.866025
v -0.500000 1.000000 0.866025
v -0.608761 -1.000000 0.793353
v -0.608761 1.000000 0.793353
v -0.707107 -1.000000 0.707107
v -0.707107 1.000000 0.707107
v -0.793353 -1.000000 0.608761
v -0.793353 1.000000 0.608761
v -0.866025 -1.000000 0.500000
v -0.866025 1.000000 0.500000
v -0.923880 -1.000000 0.382683
v -0.923880 1.000000 0.382683
v -0.965926 -1.000000 0.258819
v -0.965926 1.000000 0.258819
v -0.991445 -1.000000 0.130526
v -0.991445 1.000000 0.130526
v -1.000000 -1.000000 0.000000
v -1.000000 1.000000 0.000000
v -0.991445 -1.000000 -0.130526
v -0.991445 1.000000 -0.130526
v -0.965926 -1.000000 -0.258819
v -0.965926 1.000000 -0.258819
v -0.923880 -1.000000 -0.382683
v -0.923880 1.000000 -0.382683
v -0.866025 -1.000000 -0.500000
v -0.866025 1.000000 -0.500000
v -0.793353 -1.000000 -0.608761
v -0.793353 1.000000 -0.608761
v -0.707107 -1.000000 -0.707107
v -0.707107 1.000000 -0.707107
v -0.608761 -1.000000 -0.793353
v -0.608761 1.000000 -0.793353
v -0.500000 -1.000000 -0.866025
v -0.500000 1.000000 -0.866025
v -0.382683 -1.000000 -0.923880
v -0.382683 1.000000 -0.923880
v -0.258819 -1.000000 -0.965926
v -0.258819 1.000000 -0.965926
v -0.130526 -1.000000 -0.991445
v -0.130526 1.000000 -0.991445
vn -0.0000 -1.0000 -0.0000
vn -0.0000 1.0000 -0.0000
vn 0.0654 -0.0000 -0.9979
vn 0.1951 -0.0000 -0.9808
vn 0.3214 -0.0000 -0.9469
vn 0.4423 -0.0000 -0.8969
vn 0.5556 -0.0000 -0.8315
vn 0.6593 -0.0000 -0.7518
vn 0.7518 -0.0000 -0.6593
vn 0.8315 -0.0000 -0.5556
vn 0.8969 -0.0000 -0.4423
vn 0.9469 -0.0000 -0.3214
vn 0.9808 -0.0000 -0.1951
vn 0.9979 -0.0000 -0.0654
vn 0.9979 -0.0000 0.0654
vn 0.9808 -0.0000 0.1951
vn 0.9469 -0.0000 0.3214
vn 0.8969 -0.0000 0.4423
vn 0.8315 -0.0000 0.5556
vn 0.7518 -0.0000 0.6593
vn 0.6593 -0.0000 0.7518
vn 0.5556 -0.0000 0.8315
vn 0.4423 -0.0000 0.8969
vn 0.3214 -0.0000 0.9469
vn 0.1951 -0.0000 0.9808
vn 0.0654 -0.0000 0.9979
vn -0.0654 -0.0000 0.9979
vn -0.1951 -0.0000 0.9808
vn -0.3214 -0.0000 0.9469
vn -0.4423 -0.0000 0.8969
vn -0.5556 -0.0000 0.8315
vn -0.6593 -0.0000 0.7518
vn -0.7518 -0.0000 0.6593
vn -0.8315 -0.0000 0.5556
vn -0.8969 -0.0000 0.4423
vn -0.9469 -0.0000 0.3214
vn -0.9808 -0.0000 0.1951
vn -0.9979 -0.0000 0.0654
vn -0.9979 -0.0000 -0.0654
vn -0.9808 -0.0000 -0.1951
vn -0.9469 -0.0000 -0.3214
vn -0.8969 -0.0000 -0.4423
vn -0.8315 -0.0000 -0.5556
vn -0.7518 -0.0000 -0.6593
vn -0.6593 -0.0000 -0.7518
vn -0.5556 -0.0000 -0.8315
vn -0.4423 -0.0000 -0.8969
vn -0.3214 -0.0000 -0.9469
vn -0.1951 -0.0000 -0.9808
vn -0.0654 -0.0000 -0.9979
vt 0.750000 0.250000
vt 0.250000 0.250000
vt 1.000000 0.500000
vt 0.750000 0.490000
vt 0.000000 0.500000
vt 1.000000 1.000000
vt 0.250000 0.490000
vt 0.000000 1.000000
vt 0.781326 0.487947
vt 0.979167 0.500000
vt 0.281326 0.487947
vt 0.979167 1.000000
vt 0.812117 0.481822
vt 0.958333 0.500000
vt 0.312117 0.481822
vt 0.958333 1.000000
vt 0.841844 0.471731
vt 0.937500 0.500000
vt 0.341844 0.471731
vt 0.937500 1.000000
vt 0.870000 0.457846
vt 0.916667 0.500000
vt 0.370000 0.457846
vt 0.916667 1.000000
vt 0.896103 0.440405
vt 0.895833 0.500000
vt 0.396103 0.440405
vt 0.895833 1.000000
vt 0.919706 0.419706
vt 0.875000 0.500000
vt 0.419706 0.419706
vt 0.875000 1.000000
vt 0.940405 0.396103
vt 0.854167 0.500000
vt 0.440405 0.396103
vt 0.854167 1.000000
vt 0.957846 0.370000
vt 0.833333 0.500000
vt 0.457846 0.370000
vt 0.833333 1.000000
vt 0.971731 0.341844
vt 0.812500 0.500000
vt 0.471731 0.341844
vt 0.812500 1.000000
vt 0.981822 0.312117
vt 0.791667 0.500000
vt 0.481822 0.312117
vt 0.791667 1.000000
vt 0.987947 0.281326
vt 0.770834 0.500000
vt 0.487947 0.281326
vt 0.770834 1.000000
vt 0.990000 0.250000
vt 0.750000 0.500000
vt 0.490000 0.250000
vt 0.750000 1.000000
vt 0.987947 0.218674
vt 0.729167 0.500000
vt 0.487947 0.218674
vt 0.729167 1.000000
vt 0.981822 0.187883
vt 0.708334 0.500000
vt 0.481822 0.187883
vt 0.708334 1.000000
vt 0.971731 0.158156
vt 0.687500 0.500000
vt 0.471731 0.158156
vt 0.687500 1.000000
vt 0.957846 0.130000
vt 0.666667 0.500000
vt 0.457846 0.130000
vt 0.666667 1.000000
vt 0.940405 0.103897
vt 0.645834 0.500000
vt 0.440405 0.103897
vt 0.645834 1.000000
vt 0.919706 0.080294
vt 0.625000 0.500000
vt 0.419706 0.080294
vt 0.625000 1.000000
vt 0.896103 0.059595
vt 0.604167 0.500000
vt 0.396103 0.059595
vt 0.604167 1.000000
vt 0.870000 0.042154
vt 0.583334 0.500000
vt 0.370000 0.042154
vt 0.583334 1.000000
vt 0.841844 0.028269
vt 0.562500 0.500000
vt 0.341844 0.028269
vt 0.562500 1.000000
vt 0.812117 0.018178
vt 0.541667 0.500000
vt 0.312117 0.018178
vt 0.541667 1.000000
vt 0.781326 0.012053
vt 0.520834 0.500000
vt 0.281326 0.012053
vt 0.520834 1.000000
vt 0.750000 0.010000
vt 0.500000 0.500000
vt 0.250000 0.010000
vt 0.500000 1.000000
vt 0.718674 0.012053
vt 0.479167 0.500000
vt 0.218674 0.012053
vt 0.479167 1.000000
vt 0.687883 0.018178
vt 0.458334 0.500000
vt 0.187883 0.018178
vt 0.458334 1.000000
vt 0.658156 0.028269
vt 0.437500 0.500000
vt 0.158156 0.028269
vt 0.437500 1.000000
vt 0.630000 0.042154
vt 0.416667 0.500000
vt 0.130000 0.042154
vt 0.416667 1.000000
vt 0.603897 0.059595
vt 0.395834 0.500000
vt 0.103897 0.059595
vt 0.395834 1.000000
vt 0.580294 0.080294
vt 0.375000 0.500000
vt 0.080294 0.080294
vt 0.375000 1.000000
vt 0.559595 0.103897
vt 0.354167 0.500000
vt 0.059595 0.103897
vt 0.354167 1.000000
vt 0.542154 0.130000
vt 0.333334 0.500000
vt 0.042154 0.130000
vt 0.333334 1.000000
vt 0.528269 0.158156
vt 0.312500 0.500000
vt 0.028269 0.158156
vt 0.312500 1.000000
vt 0.518178 0.187883
vt 0.291667 0.500000
vt 0.018178 0.187883
vt 0.291667 1.000000
vt 0.512053 0.218674
vt 0.270834 0.500000
vt 0.012053 0.218674
vt 0.270834 1.000000
vt 0.510000 0.250000
vt 0.250000 0.500000
vt 0.010000 0.250000
vt 0.250000 1.000000
vt 0.512053 0.281326
vt 0.229167 0.500000
vt 0.012053 0.281326
vt 0.229167 1.000000
vt 0.518178 0.312117
vt 0.208334 0.500000
vt 0.018178 0.312117
vt 0.208334 1.000000
vt 0.528269 0.341844
vt 0.187500 0.500000
vt 0.028269 0.341844
vt 0.187500 1.000000
vt 0.542154 0.370000
vt 0.166667 0.500000
vt 0.042154 0.370000
vt 0.166667 1.000000
vt 0.559595 0.396103
vt 0.145834 0.500000
vt 0.059595 0.396103
vt 0.145834 1.000000
vt 0.580294 0.419706
vt 0.125000 0.500000
vt 0.080294 0.419706
vt 0.125000 1.000000
vt 0.603897 0.440405
vt 0.104167 0.500000
vt 0.103897 0.440405
vt 0.104167 1.000000
vt 0.630000 0.457846
vt 0.083334 0.500000
vt 0.130000 0.457846
vt 0.083334 1.000000
vt 0.658156 0.471731
vt 0.062500 0.500000
vt 0.158156 0.471731
vt 0.062500 1.000000
vt 0.687883 0.481822
vt 0.041667 0.500000
vt 0.187883 0.481822
vt 0.041667 1.000000
vt 0.718674 0.487947
vt 0.020834 0.500000
vt 0.218674 0.487947
vt 0.020834 1.000000
s 0
f 1/1/1 3/4/1 5/9/1
f 2/2/2 6/11/2 4/7/2
f 3/3/3 4/6/3 6/12/3 5/10/3
f 1/1/1 5/9/1 7/13/1
f 2/2/2 8/15/2 6/11/2
f 5/10/4 6/12/4 8/16/4 7/14/4
f 1/1/1 7/13/1 9/17/1
f 2/2/2 10/19/2 8/15/2
f 7/14/5 8/16/5 10/20/5 9/18/5
f 1/1/1 9/17/1 11/21/1
f 2/2/2 12/23/2 10/19/2
f 9/18/6 10/20/6 12/24/6 11/22/6
f 1/1/1 11/21/1 13/25/1
f 2/2/2 14/27/2 12/23/2
f 11/22/7 12/24/7 14/28/7 13/26/7
f 1/1/1 13/25/1 15/29/1
f 2/2/2 16/31/2 14/27/2
f 13/26/8 14/28/8 16/32/8 15/30/8
f 1/1/1 15/29/1 17/33/1
f 2/2/2 18/35/2 16/31/2
f 15/30/9 16/32/9 18/36/9 17/34/9
f 1/1/1 17/33/1 19/37/1
f 2/2/2 20/39/2 18/35/2
f 17/34/10 18/36/10 20/40/10 19/38/10
f 1/1/1 19/37/1 21/41/1
f 2/2/2 22/43/2 20/39/2
f 19/38/11 20/40/11 22/44/11 21/42/11
f 1/1/1 21/41/1 23/45/1
f 2/2/2 24/47/2 22/43/2
f 21/42/12 22/44/12 24/48/12 23/46/12
f 1/1/1 23/45/1 25/49/1
f 2/2/2 26/51/2 24/47/2
f 23/46/13 24/48/13 26/52/13 25/50/13
f 1/1/1 25/49/1 27/53/1
f 2/2/2 28/55/2 26/51/2
f 25/50/14 26/52/14 28/56/14 27/54/14
f 1/1/1 27/53/1 29/57/1
f 2/2/2 30/59/2 28/55/2
f 27/54/15 28/56/15 30/60/15 29/58/15
f 1/1/1 29/57/1 31/61/1
f 2/2/2 32/63/2 30/59/2
f 29/58/16 30/60/16 32/64/16 31/62/16
f 1/1/1 31/61/1 33/65/1
f 2/2/2 34/67/2 32/63/2
f 31/62/17 32/64/17 34/68/17 33/66/17
f 1/1/1 33/65/1 35/69/1
f 2/2/2 36/71/2 34/67/2
f 33/66/18 34/68/18 36/72/18 35/70/18
f 1/1/1 35/69/1 37/73/1
f 2/2/2 38/75/2 36/71/2
f 35/70/19 36/72/19 38/76/19 37/74/19
f 1/1/1 37/73/1 39/77/1
f 2/2/2 40/79/2 38/75/2
f 37/74/20 38/76/20 40/80/20 39/78/20
f 1/1/1 39/77/1 41/81/1
f 2/2/2 42/83/2 40/79/2
f 39/78/21 40/80/21 42/84/21 41/82/21
f 1/1/1 41/81/1 43/85/1
f 2/2/2 44/87/2 42/83/2
f 41/82/22 42/84/22 44/88/22 43/86/22
f 1/1/1 43/85/1 45/89/1
f 2/2/2 46/91/2 44/87/2
f 43/86/23 44/88/23 46/92/23 45/90/23
f 1/1/1 45/89/1 47/93/1
f 2/2/2 48/95/2 46/91/2
f 45/90/24 46/92/24 48/96/24 47/94/24
f 1/1/1 47/93/1 49/97/1
f 2/2/2 50/99/2 48/95/2
f 47/94/25 48/96/25 50/100/25 49/98/25
f 1/1/1 49/97/1 51/101/1
f 2/2/2 52/103/2 50/99/2
f 49/98/26 50/100/26 52/104/26 51/102/26
f 1/1/1 51/101/1 53/105/1
f 2/2/2 54/107/2 52/103/2
f 51/102/27 52/104/27 54/108/27 53/106/27
f 1/1/1 53/105/1 55/109/1
f 2/2/2 56/111/2 54/107/2
f 53/106/28 54/108/28 56/112/28 55/110/28
f 1/1/1 55/109/1 57/113/1
f 2/2/2 58/115/2 56/111/2
f 55/110/29 56/112/29 58/116/29 57/114/29
f 1/1/1 57/113/1 59/117/1
f 2/2/2 60/119/2 58/115/2
f 57/114/30 58/116/30 60/120/30 59/118/30
f 1/1/1 59/117/1 61/121/1
f 2/2/2 62/123/2 60/119/2
f 59/118/31 60/120/31 62/124/31 61/122/31
f 1/1/1 61/121/1 63/125/1
f 2/2/2 64/127/2 62/123/2
f 61/122/32 62/124/32 64/128/32 63/126/32
f 1/1/1 63/125/1 65/129/1
f 2/2/2 66/131/2 64/127/2
f 63/126/33 64/128/33 66/132/33 65/130/33
f 1/1/1 65/129/1 67/133/1
f 2/2/2 68/135/2 66/131/2
f 65/130/34 66/132/34 68/136/34 67/134/34
f 1/1/1 67/133/1 69/137/1
f 2/2/2 70/139/2 68/135/2
f 67/134/35 68/136/35 70/140/35 69/138/35
f 1/1/1 69/137/1 71/141/1
f 2/2/2 72/143/2 70/139/2
f 69/138/36 70/140/36 72/144/36 71/142/36
f 1/1/1 71/141/1 73/145/1
f 2/2/2 74/147/2 72/143/2
f 71/142/37 72/144/37 74/148/37 73/146/37
f 1/1/1 73/145/1 75/149/1
f 2/2/2 76/151/2 74/147/2
f 73/146/38 74/148/38 76/152/38 75/150/38
f 1/1/1 75/149/1 77/153/1
f 2/2/2 78/155/2 76/151/2
f 75/150/39 76/152/39 78/156/39 77/154/39
f 1/1/1 77/153/1 79/157/1
f 2/2/2 80/159/2 78/155/2
f 77/154/40 78/156/40 80/160/40 79/158/40
f 1/1/1 79/157/1 81/161/1
f 2/2/2 82/163/2 80/159/2
f 79/158/41 80/160/41 82/164/41 81/162/41
f 1/1/1 81/161/1 83/165/1
f 2/2/2 84/167/2 82/163/2
f 81/162/42 82/164/42 84/168/42 83/166/42
f 1/1/1 83/165/1 85/169/1
f 2/2/2 86/171/2 84/167/2
f 83/166/43 84/168/43 86/172/43 85/170/43
f 1/1/1 85/169/1 87/173/1
f 2/2/2 88/175/2 86/171/2
f 85/170/44 86/172/44 88/176/44 87/174/44
f 1/1/1 87/173/1 89/177/1
f 2/2/2 90/179/2 88/175/2
f 87/174/45 88/176/45 90/180/45 89/178/45
f 1/1/1 89/177/1 91/181/1
f 2/2/2 92/183/2 90/179/2
f 89/178/46 90/180/46 92/184/46 91/182/46
f 1/1/1 91/181/1 93/185/1
f 2/2/2 94/187/2 92/183/2
f 91/182/47 92/184/47 94/188/47 93/186/47
f 1/1/1 93/185/1 95/189/1
f 2/2/2 96/191/2 94/187/2
f 93/186/48 94/188/48 96/192/48 95/190/48
f 1/1/1 95/189/1 97/193/1
f 2/2/2 98/195/2 96/191/2
f 95/190/49 96/192/49 98/196/49 97/194/49
f 1/1/1 97/193/1 3/4/1
f 2/2/2 4/7/2 98/195/2
f 97/194/50 98/196/50 4/8/50 3/5/50
